<svg width="18" height="16" viewBox="0 0 18 16" fill="none" xmlns="http://www.w3.org/2000/svg">
<path fill-rule="evenodd" clip-rule="evenodd" d="M16.9639 5.8322L11.6361 5.05813L9.25438 0.230426C9.18657 0.115117 9.0628 0.0443115 8.92903 0.0443115C8.79527 0.0443115 8.6715 0.115117 8.60369 0.230426L6.22087 5.05704L0.891635 5.8322C0.754931 5.85193 0.64128 5.94756 0.598459 6.07887C0.555637 6.21018 0.591069 6.35442 0.689861 6.45095L4.54607 10.2092L3.63591 15.5155C3.61268 15.6516 3.66863 15.789 3.78026 15.8702C3.89189 15.9513 4.03989 15.9621 4.16212 15.898L8.92776 13.3929L13.6934 15.897C13.8156 15.961 13.9636 15.9502 14.0753 15.8691C14.1869 15.7879 14.2428 15.6505 14.2196 15.5145L13.3095 10.2092L17.1657 6.45095C17.2644 6.35447 17.2999 6.2103 17.2572 6.07901C17.2144 5.94771 17.1009 5.85205 16.9643 5.8322H16.9639Z" fill="#F5A623"/>
</svg>
