<svg xmlns="http://www.w3.org/2000/svg" xmlns:xlink="http://www.w3.org/1999/xlink"><symbol viewbox="0 0 113 35" fill="none" id="airbnb" xmlns="http://www.w3.org/2000/svg"><g clip-path="url(#clip0)"><path d="M32.14 24.722c-.175-.425-.34-.872-.516-1.254l-.813-1.82-.033-.033c-2.418-5.232-5.002-10.552-7.739-15.784l-.11-.218c-.274-.512-.55-1.08-.835-1.602-.352-.622-.693-1.287-1.253-1.919a5.82 5.82 0 00-2.014-1.56 5.867 5.867 0 00-4.986 0 5.82 5.82 0 00-2.014 1.56c-.517.632-.901 1.297-1.253 1.919-.275.566-.55 1.122-.835 1.635l-.11.218c-2.693 5.232-5.32 10.552-7.739 15.784l-.066.065c-.242.567-.527 1.156-.802 1.788-.176.382-.352.796-.528 1.254a7.355 7.355 0 001.064 7.269A7.468 7.468 0 004.61 34.32a7.53 7.53 0 003.799.496 9.264 9.264 0 003.495-1.2c1.43-.795 2.803-1.95 4.342-3.618 1.539 1.668 2.946 2.823 4.342 3.63a9.269 9.269 0 004.419 1.253 7.5 7.5 0 004.91-1.8 7.385 7.385 0 002.51-4.555 6.425 6.425 0 00-.286-3.815v.01zm-15.784 1.81c-1.89-2.399-3.122-4.6-3.54-6.486a5.624 5.624 0 01-.11-2.137 3.377 3.377 0 01.572-1.46c.66-.95 1.814-1.538 3.078-1.538.6-.018 1.196.112 1.733.378.537.267 1 .661 1.345 1.148.286.436.494.916.56 1.472.11.632.066 1.363-.11 2.137-.417 1.853-1.648 4.076-3.528 6.485zm14.004 1.613a5.166 5.166 0 01-1.044 2.465 5.228 5.228 0 01-2.144 1.623c-.835.348-1.758.446-2.66.348a6.92 6.92 0 01-2.66-.915 17.151 17.151 0 01-3.99-3.38c2.308-2.834 3.704-5.417 4.232-7.717a8.48 8.48 0 00.176-2.976 6 6 0 00-.945-2.398 5.879 5.879 0 00-2.156-1.854 5.932 5.932 0 00-2.78-.632c-2.034 0-3.847.938-4.947 2.475a5.619 5.619 0 00-.934 2.409c-.143.916-.11 1.93.176 2.976.528 2.3 1.957 4.916 4.232 7.74a15.717 15.717 0 01-3.99 3.4 6.955 6.955 0 01-2.66.905 5.265 5.265 0 01-3.844-1.026 5.18 5.18 0 01-2.004-3.41c-.11-.873-.033-1.745.319-2.726.11-.349.274-.697.45-1.112.242-.566.528-1.155.803-1.744l.044-.076a355.417 355.417 0 017.661-15.708l.11-.218c.275-.523.55-1.08.836-1.602.285-.556.593-1.09.989-1.526.342-.406.77-.732 1.254-.956a3.675 3.675 0 014.34.956c.386.436.704.97.99 1.526.275.523.55 1.09.836 1.602l.11.218a430.503 430.503 0 017.694 15.708l.033.033c.286.566.528 1.199.803 1.744.175.425.351.763.461 1.123.21.98.319 1.853.21 2.725zm15.301-1.853a5.557 5.557 0 01-2.4-.507 5.511 5.511 0 01-1.942-1.488 7.104 7.104 0 01-1.758-4.884 7.55 7.55 0 011.824-4.992 5.822 5.822 0 012.016-1.507 5.867 5.867 0 012.47-.52 4.759 4.759 0 012.306.524 4.714 4.714 0 011.76 1.568l.11-1.711h3.21v13.168h-3.22l-.11-1.919a4.953 4.953 0 01-1.836 1.684 5.002 5.002 0 01-2.43.584zm.836-3.14c.637 0 1.198-.174 1.726-.49.483-.35.879-.807 1.187-1.363.275-.556.417-1.22.417-1.962a3.701 3.701 0 00-.366-1.869 3.738 3.738 0 00-1.25-1.445 3.263 3.263 0 00-3.429 0 4.1 4.1 0 00-1.187 1.363 4.34 4.34 0 00-.418 1.962 3.7 3.7 0 00.367 1.868c.283.581.714 1.08 1.249 1.446.517.316 1.077.49 1.704.49zm12.256-13.93c0 .38-.066.73-.242 1.013a2.054 2.054 0 01-.736.698c-.319.174-.66.24-1.011.24-.352 0-.704-.066-1.023-.24a2.016 2.016 0 01-.736-.698 1.97 1.97 0 01-.242-1.014c0-.392.077-.741.242-1.014.176-.327.428-.523.736-.697.32-.175.66-.251 1.023-.251a2.036 2.036 0 011.758.938c.16.317.24.67.231 1.024zm-3.737 16.677V12.753h3.495v13.168h-3.506l.01-.022zm12.839-9.701v.043c-.165-.076-.385-.109-.55-.142-.22-.043-.396-.043-.604-.043-.979 0-1.715.283-2.199.872-.527.6-.77 1.439-.77 2.518v6.464h-3.506V12.742h3.22l.11 1.995c.352-.698.77-1.221 1.364-1.613a3.429 3.429 0 011.99-.545c.252 0 .494.021.703.065.11.033.176.033.242.065v3.489zm1.407 9.701V7.346h3.495v7.086a5.533 5.533 0 011.76-1.505 5.56 5.56 0 013.59-.436 5.525 5.525 0 013.092 1.864 7.104 7.104 0 011.76 4.895 7.549 7.549 0 01-1.826 4.992 5.822 5.822 0 01-2.015 1.508 5.868 5.868 0 01-2.47.52 4.759 4.759 0 01-2.306-.525 4.715 4.715 0 01-1.76-1.568l-.11 1.711-3.21.033v-.022zm6.76-2.747c.627 0 1.187-.174 1.715-.49.484-.35.88-.807 1.187-1.363.286-.556.418-1.22.418-1.962 0-.73-.132-1.395-.418-1.951a4.097 4.097 0 00-1.187-1.363 3.263 3.263 0 00-3.43 0c-.494.349-.88.807-1.198 1.363a4.34 4.34 0 00-.418 1.962 3.7 3.7 0 00.367 1.868c.283.581.714 1.08 1.25 1.446.516.316 1.076.49 1.714.49zm8.255 2.758V12.742h3.221l.11 1.711a4.338 4.338 0 011.663-1.555 4.383 4.383 0 012.228-.505 4.534 4.534 0 012.504.702 4.48 4.48 0 011.695 1.958c.385.829.594 1.853.594 2.998v7.892h-3.507v-7.434c0-.916-.209-1.636-.626-2.17-.418-.523-.99-.806-1.715-.806-.528 0-.99.109-1.396.349a2.73 2.73 0 00-.945 1.013c-.245.452-.366.96-.352 1.472v7.543h-3.474zm13.763 0V7.335h3.506v7.086a5.122 5.122 0 011.805-1.51 5.162 5.162 0 012.295-.55 5.558 5.558 0 012.401.506 5.514 5.514 0 011.941 1.488 7.127 7.127 0 011.748 4.884 7.537 7.537 0 01-1.825 4.992 5.813 5.813 0 01-2.015 1.508 5.87 5.87 0 01-2.47.52 4.757 4.757 0 01-2.306-.525 4.716 4.716 0 01-1.761-1.568l-.099 1.711-3.22.033zm6.793-2.758a3.21 3.21 0 001.715-.49c.494-.35.879-.807 1.198-1.363.275-.556.417-1.22.417-1.962a3.702 3.702 0 00-.366-1.869 3.747 3.747 0 00-1.249-1.445 3.265 3.265 0 00-3.43 0 4.099 4.099 0 00-1.187 1.363 3.927 3.927 0 00-.418 1.962 3.702 3.702 0 00.367 1.868c.283.581.714 1.08 1.249 1.446.517.316 1.044.49 1.704.49z" fill="#FF385C"/></g><defs><clippath id="clip0"><path fill="#fff" d="M0 0h112.121v34.882H0z"/></clippath></defs></symbol><symbol viewbox="0 0 28 13" fill="none" id="burger" xmlns="http://www.w3.org/2000/svg"><path d="M28 0H0v2.308h28V0z" fill="#273551"/><path d="M28 9.892H8V12.2h20V9.892z" fill="#273551"/></symbol><symbol viewbox="0 0 100 31" fill="none" id="fedex" xmlns="http://www.w3.org/2000/svg"><g clip-path="url(#clip0)"><path d="M74.45 29.496l8.312-9.206-8.312-9.206h8.77l4.116 4.472 3.964-4.472h8.464l-8.272 9.168 8.385 9.244h-8.805l-4.08-4.51-4.04 4.51H74.45z" fill="#F60"/><path d="M74.45 6.956h-9.413v4.128h9.413v6.22h-9.413v5.71h9.413v6.482H58.118V.492H74.45v6.464z" fill="#F60"/><path d="M51.228.492v11.87h-.076c-1.525-1.729-3.43-2.33-5.642-2.33-4.53 0-7.941 3.036-9.139 7.049-1.366-4.422-4.888-7.131-10.112-7.131-4.241 0-7.59 1.877-9.339 4.935v-3.801H8.152V6.957h9.569V.492H.337v29.004h7.815V17.304h7.79a11.403 11.403 0 00-.356 2.866c0 6.05 4.69 10.296 10.673 10.296 5.033 0 8.349-2.329 10.103-6.575h-6.698c-.906 1.276-1.593 1.655-3.405 1.655-2.1 0-3.91-1.807-3.91-3.948h13.638c.591 4.806 4.389 8.95 9.6 8.95a6.703 6.703 0 005.565-2.93h.076v1.877h6.89V.492h-6.89zM22.566 17.39c.434-1.842 1.884-3.046 3.694-3.046 1.991 0 3.367 1.167 3.73 3.046h-7.424zm24.481 7.69c-2.54 0-4.118-2.333-4.118-4.768 0-2.604 1.373-5.107 4.118-5.107 2.847 0 3.98 2.503 3.98 5.107 0 2.468-1.201 4.768-3.98 4.768z" fill="#652C8F"/></g><defs><clippath id="clip0"><path fill="#fff" transform="translate(.337 .492)" d="M0 0h99.663v29.899H0z"/></clippath></defs></symbol><symbol viewbox="0 0 105 35" fill="none" id="google" xmlns="http://www.w3.org/2000/svg"><g clip-path="url(#clip0)"><path d="M44.761 17.889c0 4.841-3.843 8.41-8.56 8.41-4.717 0-8.56-3.569-8.56-8.41 0-4.877 3.843-8.41 8.56-8.41 4.717 0 8.56 3.534 8.56 8.41zm-3.747 0c0-3.026-2.227-5.096-4.813-5.096-2.585 0-4.813 2.07-4.813 5.096 0 2.995 2.228 5.095 4.813 5.095 2.586 0 4.813-2.104 4.813-5.096z" fill="#EA4335"/><path d="M63.228 17.889c0 4.841-3.843 8.41-8.56 8.41-4.717 0-8.56-3.569-8.56-8.41 0-4.873 3.843-8.41 8.56-8.41 4.717 0 8.56 3.534 8.56 8.41zm-3.747 0c0-3.026-2.227-5.096-4.813-5.096-2.585 0-4.813 2.07-4.813 5.096 0 2.995 2.228 5.095 4.813 5.095 2.586 0 4.813-2.104 4.813-5.096z" fill="#FBBC05"/><path d="M80.926 9.987v15.098c0 6.21-3.716 8.747-8.11 8.747-4.136 0-6.625-2.726-7.564-4.956l3.263-1.338c.58 1.369 2.004 2.984 4.297 2.984 2.812 0 4.555-1.71 4.555-4.93v-1.209h-.13c-.84 1.02-2.455 1.911-4.494 1.911-4.267 0-8.176-3.662-8.176-8.375 0-4.747 3.91-8.44 8.176-8.44 2.035 0 3.65.89 4.493 1.88h.131V9.991h3.559v-.004zm-3.293 7.932c0-2.961-2.005-5.126-4.555-5.126-2.586 0-4.752 2.165-4.752 5.126 0 2.93 2.166 5.065 4.752 5.065 2.55 0 4.555-2.134 4.555-5.065z" fill="#4285F4"/><path d="M86.793 1.137v24.645h-3.655V1.137h3.655z" fill="#34A853"/><path d="M101.036 20.656l2.909 1.911c-.939 1.369-3.201 3.727-7.11 3.727-4.848 0-8.468-3.693-8.468-8.41 0-5 3.65-8.409 8.048-8.409 4.429 0 6.595 3.473 7.303 5.35l.388.955-11.407 4.656c.873 1.688 2.231 2.548 4.136 2.548 1.908 0 3.231-.925 4.201-2.328zm-8.953-3.025l7.626-3.12c-.42-1.051-1.682-1.783-3.167-1.783-1.904 0-4.555 1.657-4.459 4.903z" fill="#EA4335"/><path d="M13.806 15.7v-3.567h12.2c.12.622.18 1.357.18 2.154 0 2.676-.742 5.986-3.135 8.345-2.327 2.388-5.301 3.662-9.24 3.662-7.303 0-13.443-5.861-13.443-13.058C.368 6.04 6.508.178 13.81.178c4.04 0 6.918 1.562 9.08 3.598l-2.555 2.518c-1.55-1.433-3.65-2.548-6.529-2.548-5.332 0-9.503 4.235-9.503 9.49s4.17 9.49 9.503 9.49c3.459 0 5.429-1.368 6.69-2.612 1.024-1.008 1.697-2.45 1.963-4.417l-8.653.004z" fill="#4285F4"/></g><defs><clippath id="clip0"><path fill="#fff" transform="translate(.229)" d="M0 0h104.646v34.882H0z"/></clippath></defs></symbol><symbol viewbox="0 0 16 14" fill="none" id="heart" xmlns="http://www.w3.org/2000/svg"><path opacity=".8" fill-rule="evenodd" clip-rule="evenodd" d="M14.677 1.3c-1.763-1.733-4.633-1.733-6.396 0a4.428 4.428 0 00-.28.303 4.349 4.349 0 00-.282-.304c-1.763-1.732-4.633-1.732-6.396 0a4.393 4.393 0 000 6.283l6.43 6.318a.35.35 0 00.493 0l6.431-6.318a4.392 4.392 0 000-6.283z" fill="#FF523D"/></symbol><symbol viewbox="0 0 106 31" fill="none" id="hubspot" xmlns="http://www.w3.org/2000/svg"><g clip-path="url(#clip0)"><path d="M12.184 5.44v8.434H4.5V5.441H.852v20.132H4.5v-8.16h7.684v8.16h3.649V5.44h-3.649z" fill="#33475B"/><path d="M27.509 19.065c0 .807-.319 1.58-.884 2.151a3.006 3.006 0 01-2.135.891c-.8 0-1.568-.32-2.134-.89a3.054 3.054 0 01-.884-2.152v-8.623h-3.46v8.623c0 1.73.681 3.39 1.895 4.613a6.447 6.447 0 004.577 1.911 6.446 6.446 0 004.577-1.91 6.55 6.55 0 001.896-4.614v-8.623h-3.448v8.623z" fill="#33475B"/><path d="M53.148 11.33c0-1.767 1.16-2.327 2.431-2.327 1.025 0 2.378.785 3.263 1.738l2.266-2.691c-1.131-1.543-3.427-2.61-5.305-2.61-3.754 0-6.47 2.217-6.47 5.89 0 6.816 8.266 4.654 8.266 8.468 0 1.177-1.133 2.217-2.43 2.217-2.047 0-2.71-1.01-3.65-2.076l-2.516 2.636c1.609 1.99 3.593 3.001 5.97 3.001 3.566 0 6.435-2.243 6.435-5.749 0-7.567-8.265-5.216-8.265-8.497" fill="#33475B"/><path d="M104.281 22.357c-2.045 0-2.626-.892-2.626-2.258v-6.044h3.178v-3.063h-3.178V6.95l-3.509 1.587V20.85c0 3.149 2.156 4.736 5.112 4.736a7.03 7.03 0 001.384-.111l.856-3.177c-.386.027-.829.054-1.217.054" fill="#33475B"/><path d="M40.68 10.543c-1.714 0-2.91.501-4.066 1.645V5.562h-3.466v12.282c0 4.598 3.298 7.747 7.003 7.747 4.112 0 7.728-3.205 7.728-7.522 0-4.263-3.329-7.524-7.198-7.524v-.002zm-.02 11.533a3.91 3.91 0 01-2.186-.668 3.957 3.957 0 01-1.448-1.78 3.992 3.992 0 01.852-4.319 3.904 3.904 0 014.286-.86 3.94 3.94 0 011.765 1.461 3.986 3.986 0 01-.49 5.005 3.917 3.917 0 01-2.78 1.16z" fill="#33475B"/><path d="M78.314 17.885c0-4.324-3.609-7.522-7.727-7.522-3.706 0-7.004 3.15-7.004 7.747V30.4h3.466v-6.636c1.155 1.142 2.353 1.645 4.065 1.645 3.87 0 7.198-3.26 7.198-7.524h.002zm-3.282-.043c0 .784-.23 1.55-.662 2.202a3.94 3.94 0 01-1.765 1.46 3.903 3.903 0 01-4.286-.86 3.993 3.993 0 01-.852-4.32 3.958 3.958 0 011.448-1.778 3.91 3.91 0 014.965.493 3.98 3.98 0 011.152 2.803z" fill="#33475B"/><path d="M89.511 10.194v-3.51c.46-.217.85-.56 1.124-.992.273-.431.42-.932.422-1.444v-.081c0-.717-.282-1.404-.785-1.911a2.67 2.67 0 00-1.896-.792h-.08a2.67 2.67 0 00-1.896.792 2.714 2.714 0 00-.786 1.911v.081c.003.512.15 1.013.423 1.444.274.431.663.775 1.123.992v3.51a7.565 7.565 0 00-3.61 1.601L74 4.3c.068-.248.104-.503.107-.759a3.062 3.062 0 00-.506-1.693A3.026 3.026 0 0072.248.723a2.999 2.999 0 00-3.293.655 3.067 3.067 0 00-.66 3.318 3.04 3.04 0 001.111 1.368c.496.335 1.08.515 1.678.515a2.97 2.97 0 001.487-.407l9.404 7.375a7.721 7.721 0 00.116 8.648l-2.86 2.882a2.437 2.437 0 00-.715-.117c-.49 0-.97.148-1.377.422a2.496 2.496 0 00-.913 1.123 2.519 2.519 0 00.538 2.724 2.463 2.463 0 002.703.542c.453-.188.84-.509 1.113-.92.273-.41.419-.894.42-1.388a2.486 2.486 0 00-.117-.72l2.83-2.853a7.57 7.57 0 006.583 1.345 7.609 7.609 0 003.051-1.616 7.685 7.685 0 002.035-2.805 7.743 7.743 0 00-.353-6.76 7.667 7.667 0 00-2.315-2.576 7.596 7.596 0 00-3.203-1.284zM88.34 21.735c-.775 0-1.53-.232-2.174-.666a3.939 3.939 0 01-1.44-1.772 3.975 3.975 0 01.85-4.298 3.887 3.887 0 014.265-.855 3.921 3.921 0 011.756 1.453 3.968 3.968 0 01-.486 4.98 3.9 3.9 0 01-2.768 1.156" fill="#FF7A59"/></g><defs><clippath id="clip0"><path fill="#fff" transform="translate(.852 .492)" d="M0 0h104.646v29.899H0z"/></clippath></defs></symbol><symbol viewbox="0 0 114 32" fill="none" id="logo" xmlns="http://www.w3.org/2000/svg"><path fill-rule="evenodd" clip-rule="evenodd" d="M0 4.571A4.571 4.571 0 014.571 0H27.43A4.571 4.571 0 0132 4.571V27.43A4.571 4.571 0 0127.429 32H4.57A4.571 4.571 0 010 27.429V4.57zm5.024 2.84v17.732h4.71v-10.32h.138l3.948 10.181h2.84l3.948-10.112h.139v10.25h4.71V7.413h-5.992l-4.12 10.043h-.209L11.016 7.41H5.023zm10.214 1.732a3.048 3.048 0 100-6.095 3.048 3.048 0 000 6.095z" fill="#005FEC"/><path d="M40.37 23h2.57v-6.634c0-1.342.896-2.25 2.004-2.25 1.086 0 1.832.73 1.832 1.853V23h2.521v-6.804c0-1.229.732-2.08 1.975-2.08 1.037 0 1.86.61 1.86 1.96V23h2.579v-7.322c0-2.437-1.407-3.73-3.41-3.73-1.583 0-2.79.782-3.273 1.997h-.114c-.42-1.236-1.477-1.996-2.948-1.996-1.463 0-2.556.753-3.01 1.996h-.129V12.09H40.37V23zm22.779.213c2.542 0 4.29-1.243 4.744-3.14l-2.4-.269c-.349.923-1.2 1.406-2.309 1.406-1.662 0-2.763-1.094-2.784-2.961H68v-.789c0-3.828-2.302-5.511-4.986-5.511-3.125 0-5.164 2.294-5.164 5.66 0 3.424 2.01 5.604 5.299 5.604zm-2.742-6.697c.078-1.392 1.108-2.564 2.642-2.564 1.477 0 2.472 1.08 2.486 2.564h-5.128zm15.215-4.425H73.47V9.477h-2.571v2.614h-1.548v1.989h1.548v6.065c-.014 2.052 1.477 3.061 3.41 3.004a5.168 5.168 0 001.512-.256l-.433-2.01c-.142.036-.434.1-.753.1-.647 0-1.165-.227-1.165-1.264v-5.64h2.152v-1.988zm7.598 0h-2.152V9.477h-2.571v2.614h-1.549v1.989h1.549v6.065c-.015 2.052 1.477 3.061 3.409 3.004a5.169 5.169 0 001.512-.256l-.433-2.01c-.142.036-.433.1-.753.1-.646 0-1.164-.227-1.164-1.264v-5.64h2.152v-1.988zM85.37 23h2.57V12.09h-2.57V23zm1.292-12.457c.817 0 1.485-.625 1.485-1.392 0-.775-.668-1.4-1.485-1.4-.823 0-1.491.625-1.491 1.4 0 .767.668 1.392 1.491 1.392zm6.494 6.065c0-1.577.951-2.486 2.308-2.486 1.328 0 2.124.874 2.124 2.33V23h2.571v-6.946c.007-2.614-1.485-4.105-3.736-4.105-1.634 0-2.756.781-3.253 1.996h-.128V12.09h-2.457V23h2.57v-6.392zm14.361 10.71c2.947 0 5.12-1.35 5.12-4.14V12.09h-2.535v1.804h-.142c-.391-.788-1.208-1.946-3.132-1.946-2.522 0-4.503 1.974-4.503 5.56 0 3.56 1.981 5.335 4.495 5.335 1.868 0 2.742-1.002 3.14-1.804h.128v2.067c0 1.605-1.066 2.265-2.529 2.265-1.548 0-2.23-.731-2.542-1.37l-2.316.56c.469 1.527 2.039 2.756 4.816 2.756zm.021-6.491c-1.698 0-2.593-1.321-2.593-3.331 0-1.982.881-3.438 2.593-3.438 1.655 0 2.564 1.371 2.564 3.438 0 2.08-.924 3.33-2.564 3.33z" fill="#18216D"/></symbol><symbol viewbox="0 0 153 33" fill="none" id="microsoft" xmlns="http://www.w3.org/2000/svg"><g clip-path="url(#clip0)"><path d="M54.254 18.902l-.906 2.56h-.075a18.165 18.165 0 00-.88-2.51L47.535 6.774H42.78v19.41h3.145V14.205c0-.753 0-1.607-.025-2.661-.025-.527-.075-.93-.1-1.23h.075c.15.753.327 1.305.453 1.657l5.838 14.161h2.214l5.788-14.287c.126-.326.251-.98.377-1.531h.076a180.963 180.963 0 00-.151 3.49v12.303h3.346V6.724h-4.58l-4.982 12.178zm12.733-6.704h3.271v13.91h-3.271v-13.91zm1.66-5.876c-.553 0-1.006.201-1.383.553a1.78 1.78 0 00-.58 1.355c0 .528.202.98.58 1.331.377.352.83.527 1.384.527.553 0 1.031-.2 1.384-.527.377-.351.578-.803.578-1.33 0-.528-.2-.98-.578-1.356-.328-.352-.806-.553-1.384-.553zm13.211 5.75a9.14 9.14 0 00-1.837-.2c-1.484 0-2.843.326-3.975.979-1.133.652-2.039 1.556-2.617 2.686-.604 1.155-.906 2.486-.906 4.018 0 1.33.302 2.51.88 3.59.58 1.055 1.384 1.908 2.467 2.486 1.031.577 2.24.879 3.598.879 1.56 0 2.894-.327 3.95-.93l.026-.024v-3.014l-.126.101a5.629 5.629 0 01-1.585.829c-.58.2-1.108.3-1.56.3-1.309 0-2.34-.376-3.07-1.204-.755-.804-1.133-1.909-1.133-3.29 0-1.43.378-2.56 1.158-3.39.78-.828 1.811-1.255 3.07-1.255 1.056 0 2.139.352 3.12 1.055l.126.1V12.6l-.025-.025c-.428-.175-.906-.376-1.56-.502zm10.795-.1c-.805 0-1.56.25-2.214.778-.553.452-.93 1.105-1.258 1.883h-.025v-2.435h-3.271v13.91h3.27v-7.106c0-1.205.252-2.21.806-2.938.554-.753 1.258-1.13 2.114-1.13.302 0 .604.076.981.126.352.1.604.2.78.326l.126.1v-3.263l-.076-.025c-.226-.151-.679-.226-1.233-.226zm8.908-.076c-2.29 0-4.127.678-5.41 2.009-1.308 1.33-1.937 3.164-1.937 5.474 0 2.16.654 3.917 1.912 5.197 1.258 1.256 2.97 1.909 5.108 1.909 2.24 0 4.026-.678 5.31-2.034 1.308-1.356 1.937-3.164 1.937-5.399 0-2.21-.604-3.967-1.837-5.247-1.182-1.281-2.919-1.909-5.083-1.909zm2.617 10.697c-.604.778-1.56 1.155-2.742 1.155-1.183 0-2.14-.377-2.819-1.206-.68-.778-1.006-1.908-1.006-3.339 0-1.481.352-2.611 1.006-3.415.68-.803 1.611-1.205 2.793-1.205 1.158 0 2.064.377 2.718 1.155.654.778 1.007 1.908 1.007 3.39-.051 1.506-.328 2.686-.957 3.465zm11.601-4.62c-1.032-.427-1.686-.754-1.988-1.03-.252-.25-.378-.602-.378-1.054 0-.377.151-.754.529-1.005.377-.25.805-.376 1.434-.376.554 0 1.132.1 1.686.25.554.151 1.057.377 1.459.679l.126.1v-3.063l-.075-.025a9.115 9.115 0 00-1.485-.427c-.604-.1-1.157-.15-1.61-.15-1.56 0-2.844.376-3.85 1.204-1.007.779-1.485 1.833-1.485 3.064 0 .653.101 1.23.327 1.707.227.477.554.93 1.007 1.306.453.351 1.107.753 2.013 1.13.755.326 1.333.577 1.686.778.352.201.578.427.755.603.125.2.201.452.201.778 0 .93-.705 1.381-2.139 1.381-.554 0-1.132-.1-1.812-.326a7.02 7.02 0 01-1.837-.93l-.125-.1v3.189l.075.025c.478.226 1.057.377 1.761.552.705.126 1.334.226 1.888.226 1.686 0 3.07-.376 4.051-1.205 1.007-.803 1.535-1.833 1.535-3.163 0-.93-.252-1.758-.805-2.386a10.218 10.218 0 00-2.944-1.732zm12.38-6.077c-2.29 0-4.127.678-5.41 2.009-1.283 1.33-1.938 3.164-1.938 5.474 0 2.16.655 3.917 1.913 5.197 1.258 1.256 2.969 1.909 5.108 1.909 2.239 0 4.026-.678 5.309-2.034 1.309-1.356 1.938-3.164 1.938-5.399 0-2.21-.604-3.967-1.837-5.247-1.183-1.281-2.919-1.909-5.083-1.909zm2.592 10.697c-.604.778-1.56 1.155-2.743 1.155-1.208 0-2.139-.377-2.818-1.206-.68-.778-1.007-1.908-1.007-3.339 0-1.481.352-2.611 1.007-3.415.679-.803 1.61-1.205 2.793-1.205 1.132 0 2.063.377 2.717 1.155.655.778 1.007 1.908 1.007 3.39 0 1.506-.327 2.686-.956 3.465zm21.816-7.709v-2.686h-3.296V8.08l-.101.025-3.12.929-.075.025v3.139h-4.932V10.44c0-.803.201-1.431.553-1.833.352-.402.881-.603 1.535-.603.453 0 .931.1 1.46.327l.125.075V5.57l-.075-.025c-.453-.15-1.057-.251-1.837-.251-.981 0-1.837.226-2.617.602a4.363 4.363 0 00-1.787 1.783c-.427.753-.654 1.607-.654 2.586v1.934h-2.29v2.661h2.29v11.249h3.297V14.884h4.932v7.156c0 2.938 1.384 4.42 4.152 4.42.452 0 .931-.076 1.384-.151.478-.1.83-.226 1.031-.326l.025-.026v-2.686l-.125.1a2.137 2.137 0 01-.68.301c-.251.076-.478.1-.654.1-.654 0-1.107-.15-1.434-.526-.302-.352-.453-.93-.453-1.783v-6.579h3.346z" fill="#737373"/><path d="M.606.246h15.425v15.392H.606V.246z" fill="#F25022"/><path d="M17.642.246h15.425v15.392H17.642V.246z" fill="#7FBA00"/><path d="M.606 17.245h15.425v15.391H.606V17.245z" fill="#00A4EF"/><path d="M17.642 17.245h15.425v15.391H17.642V17.245z" fill="#FFB900"/></g><defs><clippath id="clip0"><path fill="#fff" transform="translate(.606 .246)" d="M0 0h151.987v32.391H0z"/></clippath></defs></symbol><symbol viewbox="0 0 72 72" fill="none" id="price" xmlns="http://www.w3.org/2000/svg"><path d="M29.895 42.695l8.168-24.505a1.733 1.733 0 00-3.288-1.096L26.607 41.6a1.733 1.733 0 003.288 1.096z" fill="#00ECD0"/><path d="M42.137 35.093a5.204 5.204 0 005.198-5.198 5.204 5.204 0 00-5.198-5.199 5.204 5.204 0 00-5.199 5.199 5.204 5.204 0 005.199 5.198zm0-6.931c.955 0 1.733.777 1.733 1.733 0 .955-.778 1.732-1.733 1.732a1.735 1.735 0 01-1.733-1.732c0-.956.777-1.733 1.733-1.733z" fill="#00ECD0"/><path d="M22.533 24.696a5.204 5.204 0 00-5.198 5.199 5.204 5.204 0 005.198 5.198 5.204 5.204 0 005.198-5.198 5.204 5.204 0 00-5.198-5.199zm0 6.931a1.735 1.735 0 01-1.733-1.732c0-.956.778-1.733 1.733-1.733.956 0 1.733.777 1.733 1.733 0 .955-.777 1.732-1.733 1.732z" fill="#00ECD0"/><path d="M71.578 26.156l-7.356-9.807.287-2.009a2.11 2.11 0 00-.596-1.79l-4.475-4.475 4.475-4.474A2.11 2.11 0 1060.93.618l-4.475 4.474L51.98.618A2.112 2.112 0 0050.19.02L29.31 3.004a2.11 2.11 0 00-1.194.597L2.262 29.454c-3.016 3.016-3.016 7.923 0 10.938L24.138 62.27c.447.447.937.827 1.456 1.141v.856c0 4.264 3.47 7.734 7.734 7.734h30.938C68.53 72 72 68.53 72 64.266V27.422c0-.457-.148-.9-.422-1.266zM5.245 37.41a3.52 3.52 0 010-4.972L30.6 7.08l19.142-2.734 3.729 3.729-2.983 2.983-1.492-1.492a2.11 2.11 0 00-2.983 2.983l5.966 5.966c.412.412.952.618 1.492.618s1.08-.206 1.491-.617a2.11 2.11 0 000-2.984l-1.491-1.491 2.983-2.983 3.729 3.729-2.735 19.141-25.356 25.357a3.492 3.492 0 01-2.486 1.03c-.94 0-1.822-.367-2.486-1.03L5.245 37.409zM67.78 64.266a3.52 3.52 0 01-3.515 3.515H33.328a3.52 3.52 0 01-3.505-3.256 7.704 7.704 0 005.253-2.256l25.853-25.854a2.11 2.11 0 00.597-1.193l1.852-12.967 4.403 5.87v36.14z" fill="#005FEC"/></symbol><symbol viewbox="0 0 56 72" fill="none" id="reliabily" xmlns="http://www.w3.org/2000/svg"><mask id="path-1-inside-1" fill="#fff"><path d="M55.462 32.978a7.837 7.837 0 00-.719-4.88 7.843 7.843 0 00.718-4.879 7.838 7.838 0 00-2.343-4.339 7.836 7.836 0 00-.994-4.83 7.84 7.84 0 00-3.687-3.277 7.841 7.841 0 00-2.585-4.2 7.842 7.842 0 00-4.585-1.816A7.838 7.838 0 0037.4 1.695a7.839 7.839 0 00-4.93-.14A7.84 7.84 0 0027.79 0a7.84 7.84 0 00-4.68 1.555 7.84 7.84 0 00-4.93.14 7.845 7.845 0 00-3.867 3.062 7.844 7.844 0 00-4.585 1.817 7.84 7.84 0 00-2.585 4.2 7.84 7.84 0 00-3.687 3.275 7.839 7.839 0 00-.994 4.831A7.838 7.838 0 00.12 23.219a7.839 7.839 0 00.718 4.88 7.837 7.837 0 00-.718 4.879 7.838 7.838 0 002.343 4.34 7.84 7.84 0 00.994 4.83 7.842 7.842 0 003.687 3.275 7.847 7.847 0 001.463 3.04l-6.18 12.932a2.11 2.11 0 002.37 2.967l9.309-2.11 4.205 8.568A2.11 2.11 0 0020.204 72h.01a2.11 2.11 0 001.893-1.2l5.683-11.892L33.473 70.8a2.109 2.109 0 001.892 1.2h.011a2.11 2.11 0 001.894-1.18l4.205-8.569 9.308 2.111a2.11 2.11 0 002.37-2.967l-6.18-12.933a7.847 7.847 0 001.464-3.039 7.837 7.837 0 003.687-3.275 7.844 7.844 0 00.994-4.83 7.842 7.842 0 002.343-4.34zm-4.866-3.581c.63.806.888 1.844.711 2.848a3.618 3.618 0 01-1.642 2.434 2.11 2.11 0 00-.889 2.44 3.614 3.614 0 01-.306 2.92 3.615 3.615 0 01-2.375 1.724 2.11 2.11 0 00-1.67 1.99 3.617 3.617 0 01-1.286 2.638c-.781.656-1.81.951-2.822.809a2.109 2.109 0 00-2.248 1.298 3.614 3.614 0 01-2.112 2.04 3.616 3.616 0 01-2.928-.205 2.109 2.109 0 00-2.558.45 3.616 3.616 0 01-2.681 1.195 3.616 3.616 0 01-2.682-1.194 2.107 2.107 0 00-2.557-.451c-.902.48-1.97.554-2.928.205a3.617 3.617 0 01-2.112-2.04 2.11 2.11 0 00-2.248-1.298 3.616 3.616 0 01-2.823-.809 3.617 3.617 0 01-1.286-2.639 2.11 2.11 0 00-1.67-1.989A3.617 3.617 0 017.11 40.04a3.619 3.619 0 01-.306-2.92 2.11 2.11 0 00-.888-2.44 3.616 3.616 0 01-1.642-2.434 3.616 3.616 0 01.71-2.848 2.11 2.11 0 000-2.596 3.615 3.615 0 01-.71-2.85 3.615 3.615 0 011.642-2.433 2.11 2.11 0 00.888-2.44 3.619 3.619 0 01.306-2.92 3.616 3.616 0 012.376-1.724 2.11 2.11 0 001.669-1.99 3.617 3.617 0 011.286-2.638 3.616 3.616 0 012.823-.809A2.109 2.109 0 0017.51 7.7a3.618 3.618 0 012.111-2.04 3.613 3.613 0 012.929.205 2.11 2.11 0 002.557-.45 3.617 3.617 0 012.682-1.195c1.02 0 1.998.435 2.681 1.194a2.11 2.11 0 002.558.451 3.617 3.617 0 012.928-.205 3.614 3.614 0 012.111 2.04 2.11 2.11 0 002.25 1.298 3.617 3.617 0 012.822.809 3.616 3.616 0 011.286 2.639 2.11 2.11 0 001.67 1.989c.998.212 1.865.841 2.374 1.725.51.884.622 1.948.307 2.92-.299.92.067 1.926.888 2.44a3.616 3.616 0 011.642 2.433 3.615 3.615 0 01-.71 2.848 2.109 2.109 0 00-.001 2.597zm-9.813 28.371a2.11 2.11 0 00-2.36 1.128l-3.021 6.156-4.534-9.488a7.847 7.847 0 001.603-.922 7.84 7.84 0 004.93-.14 7.842 7.842 0 003.866-3.061 7.86 7.86 0 002.233-.462l3.97 8.306-6.687-1.517zm-23.625 1.128a2.11 2.11 0 00-2.36-1.128L8.11 59.284l3.969-8.306c.716.261 1.469.418 2.233.463a7.84 7.84 0 003.867 3.061 7.84 7.84 0 004.93.14c.497.37 1.035.68 1.602.922l-4.534 9.487-3.02-6.155z"/></mask><path d="M55.462 32.978a7.837 7.837 0 00-.719-4.88 7.843 7.843 0 00.718-4.879 7.838 7.838 0 00-2.343-4.339 7.836 7.836 0 00-.994-4.83 7.84 7.84 0 00-3.687-3.277 7.841 7.841 0 00-2.585-4.2 7.842 7.842 0 00-4.585-1.816A7.838 7.838 0 0037.4 1.695a7.839 7.839 0 00-4.93-.14A7.84 7.84 0 0027.79 0a7.84 7.84 0 00-4.68 1.555 7.84 7.84 0 00-4.93.14 7.845 7.845 0 00-3.867 3.062 7.844 7.844 0 00-4.585 1.817 7.84 7.84 0 00-2.585 4.2 7.84 7.84 0 00-3.687 3.275 7.839 7.839 0 00-.994 4.831A7.838 7.838 0 00.12 23.219a7.839 7.839 0 00.718 4.88 7.837 7.837 0 00-.718 4.879 7.838 7.838 0 002.343 4.34 7.84 7.84 0 00.994 4.83 7.842 7.842 0 003.687 3.275 7.847 7.847 0 001.463 3.04l-6.18 12.932a2.11 2.11 0 002.37 2.967l9.309-2.11 4.205 8.568A2.11 2.11 0 0020.204 72h.01a2.11 2.11 0 001.893-1.2l5.683-11.892L33.473 70.8a2.109 2.109 0 001.892 1.2h.011a2.11 2.11 0 001.894-1.18l4.205-8.569 9.308 2.111a2.11 2.11 0 002.37-2.967l-6.18-12.933a7.847 7.847 0 001.464-3.039 7.837 7.837 0 003.687-3.275 7.844 7.844 0 00.994-4.83 7.842 7.842 0 002.343-4.34zm-4.866-3.581c.63.806.888 1.844.711 2.848a3.618 3.618 0 01-1.642 2.434 2.11 2.11 0 00-.889 2.44 3.614 3.614 0 01-.306 2.92 3.615 3.615 0 01-2.375 1.724 2.11 2.11 0 00-1.67 1.99 3.617 3.617 0 01-1.286 2.638c-.781.656-1.81.951-2.822.809a2.109 2.109 0 00-2.248 1.298 3.614 3.614 0 01-2.112 2.04 3.616 3.616 0 01-2.928-.205 2.109 2.109 0 00-2.558.45 3.616 3.616 0 01-2.681 1.195 3.616 3.616 0 01-2.682-1.194 2.107 2.107 0 00-2.557-.451c-.902.48-1.97.554-2.928.205a3.617 3.617 0 01-2.112-2.04 2.11 2.11 0 00-2.248-1.298 3.616 3.616 0 01-2.823-.809 3.617 3.617 0 01-1.286-2.639 2.11 2.11 0 00-1.67-1.989A3.617 3.617 0 017.11 40.04a3.619 3.619 0 01-.306-2.92 2.11 2.11 0 00-.888-2.44 3.616 3.616 0 01-1.642-2.434 3.616 3.616 0 01.71-2.848 2.11 2.11 0 000-2.596 3.615 3.615 0 01-.71-2.85 3.615 3.615 0 011.642-2.433 2.11 2.11 0 00.888-2.44 3.619 3.619 0 01.306-2.92 3.616 3.616 0 012.376-1.724 2.11 2.11 0 001.669-1.99 3.617 3.617 0 011.286-2.638 3.616 3.616 0 012.823-.809A2.109 2.109 0 0017.51 7.7a3.618 3.618 0 012.111-2.04 3.613 3.613 0 012.929.205 2.11 2.11 0 002.557-.45 3.617 3.617 0 012.682-1.195c1.02 0 1.998.435 2.681 1.194a2.11 2.11 0 002.558.451 3.617 3.617 0 012.928-.205 3.614 3.614 0 012.111 2.04 2.11 2.11 0 002.25 1.298 3.617 3.617 0 012.822.809 3.616 3.616 0 011.286 2.639 2.11 2.11 0 001.67 1.989c.998.212 1.865.841 2.374 1.725.51.884.622 1.948.307 2.92-.299.92.067 1.926.888 2.44a3.616 3.616 0 011.642 2.433 3.615 3.615 0 01-.71 2.848 2.109 2.109 0 00-.001 2.597zm-9.813 28.371a2.11 2.11 0 00-2.36 1.128l-3.021 6.156-4.534-9.488a7.847 7.847 0 001.603-.922 7.84 7.84 0 004.93-.14 7.842 7.842 0 003.866-3.061 7.86 7.86 0 002.233-.462l3.97 8.306-6.687-1.517zm-23.625 1.128a2.11 2.11 0 00-2.36-1.128L8.11 59.284l3.969-8.306c.716.261 1.469.418 2.233.463a7.84 7.84 0 003.867 3.061 7.84 7.84 0 004.93.14c.497.37 1.035.68 1.602.922l-4.534 9.487-3.02-6.155z" fill="#005FEC" stroke="#fff" mask="url(#path-1-inside-1)"/><path d="M25.473 32.876l.177.176.176-.176 10.438-10.438a2.629 2.629 0 013.716 3.717L27.508 38.628a2.63 2.63 0 01-3.717 0l-7.771-7.772h0a2.627 2.627 0 010-3.716h0a2.627 2.627 0 013.716 0h0l5.737 5.736z" fill="#00ECD0" stroke="#fff" stroke-width=".5"/></symbol><symbol viewbox="0 0 72 72" fill="none" id="secure" xmlns="http://www.w3.org/2000/svg"><path d="M59.812 44.9a28.825 28.825 0 004.762-15.903C64.574 13.007 51.566 0 35.577 0S6.58 13.008 6.58 28.997A28.829 28.829 0 0011.342 44.9L0 61.44l12.979-2.42L15.399 72l10.696-15.6a28.87 28.87 0 009.482 1.593c3.32 0 6.51-.561 9.482-1.593L55.756 72l2.42-12.979 12.978 2.42L59.812 44.9zM17.692 61.15l-1.32-7.08-7.079 1.321 4.777-6.967a29.186 29.186 0 008.06 6.256l-4.438 6.47zm-6.868-32.154c0-13.65 11.104-24.754 24.753-24.754 13.65 0 24.754 11.105 24.754 24.754 0 13.65-11.105 24.754-24.754 24.754-13.649 0-24.753-11.105-24.753-24.754zM54.782 54.07l-1.32 7.08-4.437-6.47a29.186 29.186 0 008.06-6.256l4.776 6.966-7.08-1.32z" fill="#005FEC"/><path d="M30.408 34.365l-6.9-6.899-3 3 9.9 9.9 20.239-20.238-3-3-17.239 17.237z" fill="#00ECD0"/></symbol><symbol viewbox="0 0 18 16" fill="none" id="star" xmlns="http://www.w3.org/2000/svg"><path fill-rule="evenodd" clip-rule="evenodd" d="M16.964 5.832l-5.328-.774L9.254.23a.377.377 0 00-.65 0L6.22 5.057l-5.33.775a.363.363 0 00-.201.619l3.856 3.758-.91 5.306a.363.363 0 00.526.383l4.766-2.505 4.765 2.504a.363.363 0 00.527-.383l-.91-5.305 3.856-3.758a.363.363 0 00-.202-.619z" fill="#F5A623"/></symbol><symbol viewbox="0 0 139 33" fill="none" id="walmart" xmlns="http://www.w3.org/2000/svg"><g clip-path="url(#clip0)"><path opacity=".8" d="M49.534 11.767v1.835h.056c.661-.982 1.758-2.14 4.188-2.14 1.891 0 3.342.963 3.963 2.417h.056c.531-.736 1.14-1.292 1.822-1.686.807-.467 1.706-.735 2.837-.735 2.56 0 4.826 1.665 4.826 5.864v7.964H63.38V17.88c0-2.128-.769-3.359-2.366-3.359-1.17 0-2.02.74-2.345 1.649-.112.313-.164.74-.164 1.096v8.025h-3.902v-7.712c0-1.807-.739-3.062-2.314-3.062-1.26 0-2.05.934-2.375 1.734-.138.341-.181.735-.181 1.105v7.931h-3.907v-13.52h3.708zm37.892 0v2.55h.108c.716-1.95 2.417-2.855 3.911-2.855.376 0 .583.029.885.085v3.542c-.358-.049-.69-.098-1.157-.098-1.692 0-2.87.926-3.169 2.376-.064.3-.086.625-.086 1v6.923h-4.006V11.767h3.514zm10.344-4.48v4.256h3.384v3.444H97.77v5.08c0 1.645.445 2.442 1.766 2.442.621 0 1.079-.074 1.476-.167l.052 2.855c-.531.187-1.662.39-2.81.39-1.352 0-2.479-.443-3.165-1.13-.786-.783-1.148-2.066-1.148-3.894V7.287h3.829zm-54.664 18h-3.885v-18h3.885v18zm-10.361-4.83a2.4 2.4 0 01-.095.732c-.302.938-1.334 1.73-2.62 1.73-1.076 0-1.93-.573-1.93-1.787 0-1.856 2.176-2.372 4.65-2.36v1.686h-.005zm3.881-3.236c0-3.066-1.39-5.759-6.091-5.759-2.414 0-4.33.638-5.375 1.206l.764 2.461c.954-.568 2.478-1.035 3.92-1.035 2.387-.004 2.776 1.27 2.776 2.087v.195c-5.202-.008-8.488 1.685-8.488 5.137 0 2.108 1.671 4.082 4.58 4.082 1.792 0 3.286-.67 4.184-1.746h.086s.596 2.335 3.869 1.441c-.173-.974-.23-2.01-.23-3.257v-4.812h.005zM4.614 7.287c.402 1.905 1.542 7.436 1.542 7.436.479 2.274.92 4.658 1.252 6.543h.06c.324-2.002.833-3.899 1.377-6.246l1.921-7.733h4.253l1.796 7.932c.47 2.205.846 3.906 1.144 5.957h.056c.324-2.07.747-3.841 1.209-6.108l1.727-7.78h4.08l-5.056 17.998c-3.22.662-4.455-.556-4.896-2.49-.44-1.936-1.304-5.62-1.304-5.62-.444-2.018-.79-3.44-1.031-5.51h-.06c-.346 2.05-.709 3.488-1.244 5.506L9.32 25.29c-3.29.618-4.43-.296-5.06-2.777C3.717 20.387.323 7.29.323 7.29h4.291v-.004zm72.822 13.17a2.4 2.4 0 01-.095.732c-.302.938-1.334 1.73-2.62 1.73-1.075 0-1.93-.573-1.93-1.787 0-1.856 2.176-2.372 4.65-2.36v1.686h-.005zm3.881-3.236c0-3.066-1.39-5.759-6.091-5.759-2.414 0-4.33.638-5.375 1.206l.764 2.461c.954-.568 2.478-1.035 3.92-1.035 2.383-.004 2.776 1.27 2.776 2.087v.195c-5.198-.008-8.483 1.685-8.483 5.137 0 2.108 1.675 4.082 4.58 4.082 1.787 0 3.285-.67 4.18-1.746h.09s.596 2.335 3.868 1.441c-.173-.974-.229-2.01-.229-3.257v-4.812z" fill="#041E42"/><path d="M116.905 19.087c.383.658.357 1.391-.052 1.726l-7.066 4.881c-.736.42-1.837-.089-2.461-1.153-.629-1.069-.517-2.26.219-2.68l7.823-3.588c.491-.186 1.154.157 1.537.814zm9.299 0c.387-.657 1.046-.996 1.536-.818l7.828 3.588c.736.42.843 1.61.219 2.68-.628 1.064-1.734 1.569-2.465 1.153l-7.066-4.881c-.405-.33-.435-1.069-.052-1.722zm-4.652 2.646c.771 0 1.403.39 1.489.904l.762 8.473c0 .84-.994 1.526-2.246 1.526-1.248 0-2.247-.687-2.247-1.526l.758-8.473c.086-.513.718-.904 1.484-.904zm4.704-9.66l7.066-4.885c.731-.42 1.837.085 2.465 1.153.624 1.069.517 2.26-.219 2.68l-7.828 3.592c-.49.178-1.153-.16-1.536-.818-.383-.657-.353-1.391.052-1.722zm-10.888 2.54l-7.823-3.592c-.731-.42-.843-1.611-.219-2.68.624-1.068 1.73-1.573 2.461-1.153l7.066 4.885c.409.327.435 1.065.052 1.722s-1.046.996-1.537.818zm4.7-4.368l-.758-8.473c0-.84.994-1.526 2.247-1.526 1.252 0 2.246.687 2.246 1.526l-.762 8.473c-.086.51-.718.904-1.489.904-.766 0-1.398-.395-1.484-.904zm17.63 15.415v-.212h.194c.064 0 .107.043.107.106 0 .06-.043.106-.107.106h-.194zm-.159.386c0 .021.017.043.043.043h.082c.021 0 .043-.021.043-.043v-.241h.133l.108.254c.008.017.021.03.038.03h.099c.031 0 .052-.03.039-.06-.039-.076-.077-.157-.116-.237a.235.235 0 00.163-.238c0-.16-.133-.254-.266-.254h-.323c-.022 0-.043.021-.043.042v.704zm-.349-.352a.63.63 0 01.633-.623c.348 0 .632.276.632.623a.626.626 0 01-.632.624.627.627 0 01-.633-.624zm-.15 0c0 .424.348.772.783.772a.78.78 0 00.783-.772.78.78 0 00-.783-.771.777.777 0 00-.783.771z" fill="#FFC124"/></g><defs><clippath id="clip0"><path fill="#fff" transform="translate(.323 .246)" d="M0 0h138.283v32.391H0z"/></clippath></defs></symbol></svg>